<svg viewBox="0 0 32 32" xmlns="http://www.w3.org/2000/svg" xmlns:xlink="http://www.w3.org/1999/xlink" width="32.000031" height="32.000000" fill="none" customFrame="#000000">
	<path id="Vector" d="M16 32C24.8366 32 32 24.8366 32 16C32 7.16345 24.8366 0 16 0C7.16343 0 0 7.16345 0 16C0 24.8366 7.16343 32 16 32ZM20.9915 7.45348C21.2344 6.59044 20.3969 6.08011 19.632 6.62504L8.9545 14.2317C8.12498 14.8226 8.25546 16 9.1505 16L11.9622 16L11.9622 15.9782L17.442 15.9782L12.977 17.5537L11.0086 24.5466C10.7656 25.4096 11.6031 25.9199 12.368 25.375L23.0455 17.7684C23.8751 17.1774 23.7445 16 22.8496 16L18.5857 16L20.9915 7.45348Z" fill="rgb(33,39,42)" fill-rule="evenodd" />
</svg>
